<svg width="155" height="39" viewBox="0 0 155 39" xmlns="http://www.w3.org/2000/svg" xmlns:xlink="http://www.w3.org/1999/xlink"><title>logo</title><defs><path id="a" d="M.035 25.29h24.78V.1H.034v25.19z"/><path id="c" d="M.065 7.2h4.337V.014H.065V7.2z"/><path id="e" d="M.087 6.083h5.526V.03H.087v6.053z"/><path id="g" d="M.128 6.083h5.526V.03H.128v6.053z"/><path id="i" d="M.02 7.2h4.337V.014H.019z"/><path id="k" d="M.092 8.317h5.526V.018H.092v8.299z"/></defs><g fill="none" fill-rule="evenodd"><path d="M37.123 38.507h6.196l4.957-25.138h-4.584c-.9.05-1.655.684-1.895 1.566l-4.674 23.572zm-6.229-23.092l-4.127 23.092h8.23L41.223 7.04H32.88c-2.166.073-3.956 1.04-5.296 2.759l-6.08 7.73-4.935-7.577C15.528 8.163 14.18 7.12 12.31 7.039H6.115L0 38.507h8.102l4.29-22.936 8.18 12.447 10.322-12.603z" fill="#FEFEFE"/><g transform="translate(47.304 13.234)"><mask id="b" fill="#fff"><use xlink:href="#a"/></mask><path d="M12.455 5.216h9.155c.918-.044 2.04-.528 2.313-1.472L24.814.1 10.34.156C8.134.34 6.366 1.572 4.894 3.2 1.36 7.772-.412 13.901.132 19.69c.503 2.953 1.704 5.321 4.896 5.582l13.872.019 1.283-5.425-10.916.03c-1.26-.15-1.696-.974-1.96-2.143-.471-3.593.901-8.123 2.94-11.055.621-.773 1.2-1.35 2.208-1.482" fill="#FEFEFE" mask="url(#b)"/></g><path d="M107.01 18.43c3.495 0 2.601.006 6.085.01 5.89.483 2.207 14.197-3.007 14.63-2.039 0-4.054-.008-6.085-.011-5.903-.485-2.188-14.195 3.007-14.63zm-2.583-5.102c-2.316.192-3.8 1.386-5.337 3.083-3.776 4.886-5.965 12.273-4.362 18.396.864 2.317 1.853 3.496 4.343 3.7h13.626c2.694-.223 4.325-1.759 5.936-3.843 3.332-4.981 5.59-12.501 3.4-18.37-.975-1.902-2.074-2.703-4.19-2.877l-13.416-.089z" fill="#FEFEFE"/><path d="M77.268 26.203l1.86-7.801h6.68c4.444.406 1.844 7.667-2.416 7.801h-6.124zm8.578 12.304h4.728l-2.636-7.855c6.54-4.014 9.539-16.86-1.11-17.283H74.185L68.27 38.507h6.294l1.703-7.497h5.679l2.007 6.144c.368.864.96 1.31 1.893 1.353zm51.976-22.827c-.551-1.495-2-2.272-3.495-2.332h-7.324l-4.975 25.16h6.479l4.005-20.2 5.433 18.246c.673 1.258 1.99 1.91 3.347 1.954h5.578l4.816-25.16h-6.364l-3.226 17.2-4.274-14.869z" fill="#FEFEFE"/><path fill="#FFC80A" d="M103.724 1.095L102 8.73h1.685l1.724-7.635zm7.023 7.635h-1.663l.757-3.41c.059-.237.088-.444.088-.622 0-.428-.198-.642-.596-.642-.34 0-.647.198-.923.595-.276.397-.494.95-.652 1.661l-.542 2.418h-1.663l1.31-5.839h1.27l-.115 1.081h.033c.537-.794 1.191-1.19 1.961-1.19.509 0 .902.145 1.18.436.278.29.417.706.417 1.245 0 .254-.042.568-.127.94l-.735 3.327z"/><g transform="translate(112.639 1.635)"><mask id="d" fill="#fff"><use xlink:href="#c"/></mask><path d="M2.385 5.93c.24 0 .538-.06.896-.182v1.175c-.41.184-.9.277-1.47.277-.553 0-.959-.11-1.219-.33-.26-.219-.39-.558-.39-1.018 0-.174.023-.369.067-.585l.636-2.815h-.84l.16-.767 1.083-.439.73-1.232h1.071l-.27 1.243h1.563l-.276 1.195H2.568l-.636 2.815a1.36 1.36 0 0 0-.033.277c0 .258.162.387.486.387" fill="#FFC80A" mask="url(#d)"/></g><g transform="translate(117.236 2.752)"><mask id="f" fill="#fff"><use xlink:href="#e"/></mask><path d="M3.436 1.163c-.324 0-.63.14-.917.418a1.98 1.98 0 0 0-.564 1.018h.248c.572 0 1.016-.084 1.335-.253.319-.169.478-.398.478-.687 0-.33-.193-.496-.58-.496m-.906 4.92c-.774 0-1.375-.197-1.802-.59-.427-.394-.64-.95-.64-1.667 0-.72.151-1.377.455-1.971.304-.594.716-1.046 1.235-1.358A3.36 3.36 0 0 1 3.541.03c.652 0 1.16.142 1.525.425.365.284.547.673.547 1.168 0 .65-.308 1.153-.923 1.506-.615.354-1.494.53-2.636.53h-.281l-.012.11v.104c0 .317.095.567.285.75.19.183.462.274.815.274.32 0 .611-.033.873-.1.262-.065.578-.182.95-.35v1.187c-.633.299-1.351.449-2.154.449" fill="#FFC80A" mask="url(#f)"/></g><path d="M127.783 2.782c.217 0 .394.019.53.057l-.364 1.515a1.73 1.73 0 0 0-.553-.084c-.427 0-.802.16-1.124.478-.323.318-.552.775-.688 1.37l-.586 2.612h-1.663l1.31-5.839h1.27l-.116 1.081h.034c.541-.794 1.191-1.19 1.95-1.19m5.509 5.948h-1.663l.757-3.41c.06-.237.089-.444.089-.622 0-.428-.2-.642-.597-.642-.34 0-.647.198-.923.595-.276.397-.494.95-.652 1.661l-.542 2.418h-1.663l1.31-5.839h1.27l-.115 1.081h.033c.538-.794 1.191-1.19 1.961-1.19.509 0 .902.145 1.18.436.278.29.417.706.417 1.245 0 .254-.042.568-.127.94l-.735 3.327z" fill="#FFC80A"/><g transform="translate(135.099 2.752)"><mask id="h" fill="#fff"><use xlink:href="#g"/></mask><path d="M3.476 1.163c-.324 0-.63.14-.917.418a1.98 1.98 0 0 0-.563 1.018h.248c.571 0 1.016-.084 1.335-.253.318-.169.478-.398.478-.687 0-.33-.194-.496-.58-.496m-.907 4.92c-.773 0-1.374-.197-1.801-.59-.427-.394-.641-.95-.641-1.667 0-.72.152-1.377.456-1.971.304-.594.715-1.046 1.235-1.358A3.36 3.36 0 0 1 3.582.03c.652 0 1.16.142 1.525.425.364.284.547.673.547 1.168 0 .65-.308 1.153-.923 1.506-.615.354-1.494.53-2.636.53h-.282l-.01.11v.104c0 .317.094.567.284.75.19.183.461.274.815.274.32 0 .611-.033.873-.1.262-.065.578-.182.95-.35v1.187c-.633.299-1.352.449-2.155.449" fill="#FFC80A" mask="url(#h)"/></g><g transform="translate(141.534 1.635)"><mask id="j" fill="#fff"><use xlink:href="#i"/></mask><path d="M2.34 5.93c.24 0 .538-.06.895-.182v1.175c-.409.184-.899.277-1.47.277-.552 0-.958-.11-1.218-.33-.26-.219-.39-.558-.39-1.018 0-.174.022-.369.067-.585l.635-2.815h-.84l.16-.767 1.083-.439.73-1.232h1.072l-.271 1.243h1.564L4.08 2.452H2.522l-.635 2.815a1.36 1.36 0 0 0-.033.277c0 .258.162.387.486.387" fill="#FFC80A" mask="url(#j)"/></g><g transform="translate(149.02 .517)"><mask id="l" fill="#fff"><use xlink:href="#k"/></mask><path d="M2.512 1.6c.291-.305.7-.833 1.227-1.582H5.59v.09c-.17.194-.453.46-.851.796-.398.336-.755.612-1.072.827H2.512v-.13zm.928 1.797c-.324 0-.63.14-.917.418a1.98 1.98 0 0 0-.563 1.019h.248c.571 0 1.016-.085 1.335-.254.318-.168.478-.397.478-.686 0-.331-.194-.497-.58-.497zm-.906 4.92c-.773 0-1.374-.197-1.801-.59C.305 7.333.092 6.778.092 6.06c0-.72.152-1.378.456-1.972.303-.593.715-1.046 1.235-1.357a3.361 3.361 0 0 1 1.762-.468c.652 0 1.16.142 1.526.426.364.284.547.673.547 1.167 0 .651-.308 1.153-.923 1.507-.615.353-1.494.53-2.636.53h-.282l-.011.11v.104c0 .317.095.567.285.75.19.182.461.273.815.273.32 0 .611-.033.873-.099.261-.066.578-.183.95-.35v1.186c-.634.3-1.352.45-2.155.45z" fill="#FFC80A" mask="url(#l)"/></g></g></svg>